<svg id="Layer_1" enable-background="new 0 0 256 256" height="512" viewBox="0 0 256 256" width="512" xmlns="http://www.w3.org/2000/svg"><path d="m47.726 26.346c-.974 11.564-13.024 13.39-13.024 13.39 10.347.487 12.925 14.059 12.925 14.059.221-9.677 13.321-14.202 13.321-14.202-9.813-.588-13.222-13.247-13.222-13.247z" fill="#d5dc57"/><path d="m61.038 38.095c-8.604-.515-11.832-12.025-11.863-12.141-.19-.702-.842-1.166-1.584-1.102-.725.066-1.298.642-1.359 1.367-.859 10.215-11.313 11.964-11.754 12.032-.763.116-1.313.791-1.273 1.561.04.771.657 1.385 1.428 1.421 9.027.426 11.498 12.719 11.521 12.843.138.712.76 1.218 1.473 1.218.042 0 .084-.002.126-.005.765-.064 1.357-.693 1.375-1.46.193-8.51 12.191-12.778 12.313-12.82.676-.234 1.092-.914.994-1.622-.1-.709-.683-1.25-1.397-1.292zm-13.566 10.345c-1.356-3.131-3.708-6.907-7.587-8.876 2.931-1.405 6.409-3.913 8.202-8.273 1.551 3.071 4.2 6.88 8.334 8.723-3.008 1.639-6.923 4.405-8.949 8.426z" fill="#3a312a"/><path d="m26.028 43.326c-.689 8.179-9.213 9.471-9.213 9.471 7.318.344 9.142 9.944 9.142 9.944.156-6.844 9.422-10.045 9.422-10.045-6.941-.416-9.351-9.37-9.351-9.37z" fill="#d5dc57"/><path d="m35.47 51.198c-5.767-.345-7.973-8.186-7.995-8.265-.189-.702-.865-1.168-1.581-1.102-.726.065-1.3.643-1.361 1.368-.578 6.871-7.646 8.066-7.941 8.113-.763.116-1.313.791-1.273 1.561.04.771.657 1.385 1.428 1.421 6.035.284 7.723 8.645 7.738 8.727.136.712.759 1.22 1.473 1.22.041 0 .083-.002.124-.005.766-.063 1.359-.693 1.377-1.461.13-5.709 8.332-8.634 8.413-8.662.676-.233 1.093-.913.996-1.622-.099-.709-.684-1.251-1.398-1.293zm-9.585 6.795c-.924-1.886-2.34-3.947-4.447-5.279 1.855-1.041 3.697-2.63 4.87-4.917 1.058 1.874 2.655 3.954 4.941 5.224-1.85 1.1-3.988 2.74-5.364 4.972z" fill="#3a312a"/><path d="m26.028 16.669c-.689 8.179-9.213 9.471-9.213 9.471 7.318.344 9.142 9.944 9.142 9.944.156-6.845 9.422-10.045 9.422-10.045-6.941-.416-9.351-9.37-9.351-9.37z" fill="#d5dc57"/><path d="m35.47 24.541c-5.767-.345-7.973-8.186-7.995-8.265-.189-.702-.865-1.167-1.581-1.102-.726.065-1.3.643-1.361 1.368-.578 6.87-7.646 8.066-7.941 8.113-.763.116-1.313.791-1.273 1.561.04.771.657 1.385 1.428 1.421 6.035.284 7.723 8.645 7.738 8.727.136.712.759 1.22 1.473 1.22.041 0 .083-.002.124-.005.766-.063 1.359-.693 1.377-1.461.13-5.709 8.332-8.634 8.413-8.662.676-.233 1.093-.913.996-1.622-.099-.709-.684-1.251-1.398-1.293zm-9.585 6.795c-.924-1.886-2.34-3.947-4.447-5.28 1.855-1.041 3.697-2.629 4.87-4.916 1.058 1.874 2.655 3.954 4.941 5.224-1.85 1.1-3.988 2.74-5.364 4.972z" fill="#3a312a"/><circle cx="127.685" cy="128.215" fill="#f8e4c8" r="98"/><path d="m127.685 28.715c-54.864 0-99.5 44.636-99.5 99.5s44.636 99.5 99.5 99.5 99.5-44.636 99.5-99.5-44.636-99.5-99.5-99.5zm0 196c-53.21 0-96.5-43.29-96.5-96.5s43.29-96.5 96.5-96.5 96.5 43.29 96.5 96.5-43.29 96.5-96.5 96.5z" fill="#3a312a"/><path d="m127.685 83.066c-41.722-26.012-72.593 2.04-72.593 35.235 0 17.574 11.344 36.336 26.831 52.614l10.186 9.838c9.827 8.764 20.542 16.436 30.745 22.278 2.99 1.712 6.671 1.712 9.661 0 31.423-17.993 67.762-53.27 67.762-84.73 0-33.195-30.87-61.247-72.592-35.235z" fill="#f16c7a"/><path d="m178.965 76.359c-14.585-8.094-32.767-6.331-51.28 4.945-18.514-11.275-36.695-13.04-51.279-4.945-14.071 7.809-22.813 23.88-22.813 41.942 0 11.411 4.727 29.981 27.243 53.648.571.6 1.522.624 2.121.053.6-.571.624-1.521.053-2.121-21.834-22.948-26.417-40.716-26.417-51.58 0-16.973 8.149-32.039 21.268-39.319 13.797-7.657 31.209-5.754 49.03 5.356.486.303 1.102.303 1.588 0 17.82-11.109 35.234-13.013 49.03-5.356 13.119 7.28 21.269 22.347 21.269 39.319 0 29.582-33.709 64.361-67.007 83.429-2.521 1.442-5.651 1.44-8.171 0-10.446-5.982-20.99-13.623-30.492-22.096-.62-.555-1.568-.498-2.117.121-.552.618-.497 1.566.121 2.117 9.654 8.61 20.373 16.377 30.998 22.461 1.719.984 3.647 1.477 5.575 1.477s3.856-.492 5.576-1.477c34.049-19.496 68.517-55.309 68.517-86.032-.001-18.061-8.742-34.133-22.813-41.942z" fill="#3a312a"/><circle clip-rule="evenodd" cx="194.465" cy="194.611" fill="#d5de58" fill-rule="evenodd" r="44.72"/><path d="m194.465 148.391c-25.486 0-46.221 20.734-46.221 46.221 0 25.485 20.734 46.22 46.221 46.22 25.485 0 46.22-20.734 46.22-46.22 0-25.487-20.735-46.221-46.22-46.221zm0 89.44c-23.832 0-43.221-19.389-43.221-43.22 0-23.832 19.389-43.221 43.221-43.221 23.831 0 43.22 19.389 43.22 43.221 0 23.831-19.389 43.22-43.22 43.22z" fill="#3a312a"/><path d="m204.221 185.135v-19.19h-19.512v19.19h-19.19v19.512h19.19v19.189h19.512v-19.189h19.189v-19.512z" fill="#ef6d7a"/><path d="m223.41 183.636h-17.689v-17.69c0-.828-.672-1.5-1.5-1.5h-19.512c-.828 0-1.5.672-1.5 1.5v17.69h-17.689c-.828 0-1.5.672-1.5 1.5v19.511c0 .828.672 1.5 1.5 1.5h17.689v17.69c0 .828.672 1.5 1.5 1.5h19.512c.828 0 1.5-.672 1.5-1.5v-17.69h17.689c.828 0 1.5-.672 1.5-1.5v-19.511c0-.828-.672-1.5-1.5-1.5zm-1.5 19.51h-17.689c-.828 0-1.5.672-1.5 1.5v17.69h-16.512v-17.69c0-.828-.672-1.5-1.5-1.5h-17.689v-16.511h17.689c.828 0 1.5-.672 1.5-1.5v-17.69h16.512v17.69c0 .828.672 1.5 1.5 1.5h17.689z" fill="#3a312a"/><g fill="#dbc7aa"><path d="m153.255 215.515c-8.45 4.33-17.62 7.46-27.28 9.18.57.02 1.14.02 1.71.02 9.9 0 19.46-1.5 28.46-4.29-1.06-1.57-2.03-3.21-2.89-4.91z"/><path d="m127.685 31.715c-.57 0-1.14 0-1.71.02 45.87 8.17 80.71 48.26 80.71 96.48 0 7.3-.8 14.41-2.32 21.25 5.69 1.25 10.99 3.55 15.69 6.68 2.68-8.84 4.13-18.22 4.13-27.93 0-53.21-43.29-96.5-96.5-96.5z"/></g></svg>