<svg id="Capa_1" enable-background="new 0 0 512 512" height="512" viewBox="0 0 512 512" width="512" xmlns="http://www.w3.org/2000/svg"><g><g><g><g><path d="m255.991 303.925v172.285-.732l256.009 36.522v-348.37z" fill="#ffc31a"/><path d="m0 163.63v348.37l255.991-35.79 35.013-105.655-35.013-104.058z" fill="#ffe673"/></g><g><path d="m0 512h255.991l44.776-52.448-44.776-168.039z" fill="#fff1b6"/><path d="m255.991 291.513v220.487h256.009z" fill="#ffe673"/></g></g><g><path d="m0 163.63 82.228 82.813 173.763-82.813z" fill="#ffc31a"/><path d="m255.991 163.63 175.007 81.573 81.002-81.573z" fill="#ff9b00"/></g><g><path d="m255.991 0h-173.762v246.442l173.762 175 44.776-149.916z" fill="#eef9ff"/><path d="m430.999 0h-175.008v421.442l175.008-176.238z" fill="#b9eafa"/></g></g><g><g><path d="m255.991 125.208h-34.794l-11.662-43.439 11.662-45.072h34.794z" fill="#8080ff"/></g><g><path d="m221.197 156.8v-120.103h-22.56c-29.306 0-53.063 23.757-53.063 53.063v68.847c0 62.799 48.725 114.218 110.417 118.568l34.977-38.104-34.977-38.409c-19.924-4.656-34.794-22.519-34.794-43.862z" fill="#99f"/></g><path d="m297.845 201.857v-34.768h88.511v34.768l-44.255 21.508z" fill="#66f"/><path d="m266.253 201.857c-3.542 0-6.956-.422-10.263-1.194v76.513c2.802.198 5.603.304 8.455.304h68.847c29.306 0 53.063-23.757 53.063-53.063v-22.56z" fill="#8080ff"/></g></g></svg>